<svg width="15" height="10" viewBox="0 0 15 10" fill="none" xmlns="http://www.w3.org/2000/svg">
<path d="M5.16992 6.50977V0.46875H6.29492V6.50977C6.29492 7.07227 6.17969 7.54688 5.94922 7.93359C5.71875 8.32031 5.40039 8.61523 4.99414 8.81836C4.5918 9.01758 4.12891 9.11719 3.60547 9.11719C3.08203 9.11719 2.61719 9.02734 2.21094 8.84766C1.80469 8.66797 1.48633 8.39453 1.25586 8.02734C1.02539 7.66016 0.910156 7.19727 0.910156 6.63867H2.04102C2.04102 6.99805 2.10742 7.29297 2.24023 7.52344C2.37305 7.75391 2.55664 7.92383 2.79102 8.0332C3.0293 8.14258 3.30078 8.19727 3.60547 8.19727C3.90234 8.19727 4.16797 8.13477 4.40234 8.00977C4.64062 7.88086 4.82812 7.69141 4.96484 7.44141C5.10156 7.1875 5.16992 6.87695 5.16992 6.50977ZM14.5156 4.75195V7.875C14.4102 8.03125 14.2422 8.20703 14.0117 8.40234C13.7812 8.59375 13.4629 8.76172 13.0566 8.90625C12.6543 9.04688 12.1348 9.11719 11.498 9.11719C10.9785 9.11719 10.5 9.02734 10.0625 8.84766C9.62891 8.66406 9.25195 8.39844 8.93164 8.05078C8.61523 7.69922 8.36914 7.27344 8.19336 6.77344C8.02148 6.26953 7.93555 5.69922 7.93555 5.0625V4.40039C7.93555 3.76367 8.00977 3.19531 8.1582 2.69531C8.31055 2.19531 8.5332 1.77148 8.82617 1.42383C9.11914 1.07227 9.47852 0.806641 9.9043 0.626953C10.3301 0.443359 10.8184 0.351562 11.3691 0.351562C12.0215 0.351562 12.5664 0.464844 13.0039 0.691406C13.4453 0.914062 13.7891 1.22266 14.0352 1.61719C14.2852 2.01172 14.4453 2.46094 14.5156 2.96484H13.3848C13.334 2.65625 13.2324 2.375 13.0801 2.12109C12.9316 1.86719 12.7188 1.66406 12.4414 1.51172C12.1641 1.35547 11.8066 1.27734 11.3691 1.27734C10.9746 1.27734 10.6328 1.34961 10.3438 1.49414C10.0547 1.63867 9.81641 1.8457 9.62891 2.11523C9.44141 2.38477 9.30078 2.71094 9.20703 3.09375C9.11719 3.47656 9.07227 3.9082 9.07227 4.38867V5.0625C9.07227 5.55469 9.12891 5.99414 9.24219 6.38086C9.35938 6.76758 9.52539 7.09766 9.74023 7.37109C9.95508 7.64062 10.2109 7.8457 10.5078 7.98633C10.8086 8.12695 11.1406 8.19727 11.5039 8.19727C11.9062 8.19727 12.2324 8.16406 12.4824 8.09766C12.7324 8.02734 12.9277 7.94531 13.0684 7.85156C13.209 7.75391 13.3164 7.66211 13.3906 7.57617V5.66602H11.416V4.75195H14.5156Z" fill="#888888"/>
</svg>
